<?xml version="1.0" encoding="utf-8"?>
<!-- Generator: Adobe Illustrator 19.2.0, SVG Export Plug-In . SVG Version: 6.00 Build 0)  -->
<svg version="1.1" id="Layer_1" xmlns="http://www.w3.org/2000/svg" xmlns:xlink="http://www.w3.org/1999/xlink" x="0px" y="0px"
	 viewBox="0 0 800 700" style="enable-background:new 0 0 800 700;" xml:space="preserve">
<style type="text/css">
	.st0{fill:#4C5772;}
	.st1{fill:#00AF90;}
</style>
<g>
	<g>
		<g>
			<g>
				<g>
					<path class="st0" d="M184.1,444.7c3,0.3,5.6,1.7,7.7,4.2c2.1,2.4,3.2,5.6,3.2,9.4c0,4.9-1.6,8.7-4.7,11.6
						c-3.1,2.9-7.7,4.3-13.6,4.3h-28.2v-58h27.6c5.3,0,9.4,1.4,12.6,4.3c3.1,2.9,4.7,6.7,4.7,11.4c0,3.4-0.9,6.2-2.8,8.5
						c-1.9,2.3-4,3.6-6.4,4V444.7z M157.7,441.3H175c2.8,0,5-0.8,6.7-2.5s2.6-3.8,2.6-6.5c0-2.4-0.8-4.4-2.6-5.9
						c-1.7-1.5-3.9-2.3-6.6-2.3h-17.4V441.3z M175.7,466.2c3.1,0,5.5-0.8,7.2-2.4c1.7-1.6,2.6-3.8,2.6-6.4c0-2.6-0.9-4.7-2.6-6.3
						c-1.8-1.6-4.1-2.4-6.9-2.4h-18.3v17.5H175.7z"/>
				</g>
			</g>
			<g>
				<g>
					<path class="st0" d="M213.5,414.4c1.1,1.1,1.6,2.4,1.6,4c0,1.6-0.5,2.9-1.6,4c-1.1,1-2.4,1.6-4.1,1.6c-1.7,0-3.1-0.5-4.2-1.6
						c-1.1-1-1.6-2.4-1.6-4c0-1.6,0.6-2.9,1.6-4c1.1-1.1,2.5-1.6,4.2-1.6C211,412.7,212.4,413.3,213.5,414.4z M204.9,474.2v-43h9v43
						H204.9z"/>
				</g>
			</g>
			<g>
				<g>
					<path class="st0" d="M255,472.1c-3.7,2.2-7.2,3.3-10.7,3.3c-4.8,0-8.6-1.3-11.3-4c-2.8-2.7-4.2-6.6-4.2-11.8v-20.9h-9.3v-7.5
						h9.3v-13.3h9v13.3h14.7v7.5h-14.7V459c0,2.6,0.6,4.6,1.9,5.9c1.3,1.4,3,2,5.2,2c2.5,0,4.9-0.8,7.3-2.3L255,472.1z"/>
				</g>
			</g>
			<g>
				<g>
					<path class="st0" d="M291.1,458.1l8.3,2.2c-1.2,4.6-3.7,8.2-7.6,11s-8.4,4.2-13.4,4.2c-6.3,0-11.7-2.1-16.1-6.4
						c-4.4-4.2-6.6-9.7-6.6-16.3c0-6.6,2.2-12,6.6-16.3c4.4-4.3,9.8-6.4,16.1-6.4c4.9,0,9.3,1.4,13.2,4.1c3.9,2.7,6.5,6.4,7.8,11
						l-8.7,2.5c-0.8-3.1-2.3-5.4-4.5-6.9c-2.2-1.6-4.8-2.3-7.8-2.3c-4,0-7.3,1.3-9.9,4c-2.6,2.7-3.9,6.1-3.9,10.3
						c0,4.3,1.3,7.8,3.9,10.4c2.6,2.6,5.9,3.9,10,3.9C284.8,467.1,289.1,464.1,291.1,458.1z"/>
				</g>
			</g>
			<g>
				<g>
					<path class="st0" d="M343.4,436.6c4.4,4.2,6.6,9.6,6.6,16.2c0,6.6-2.2,12-6.7,16.2c-4.4,4.2-9.9,6.3-16.3,6.3
						c-6.5,0-11.9-2.1-16.4-6.3c-4.5-4.2-6.7-9.6-6.7-16.2c0-6.6,2.2-12,6.7-16.2c4.5-4.2,10-6.3,16.4-6.3S339,432.4,343.4,436.6z
						 M337.1,463.3c2.8-2.7,4.2-6.3,4.2-10.6c0-4.3-1.4-7.9-4.2-10.6s-6.2-4.1-10-4.1c-3.9,0-7.3,1.4-10.1,4.1
						c-2.8,2.7-4.2,6.3-4.2,10.6c0,4.3,1.4,7.9,4.2,10.6c2.8,2.7,6.2,4.1,10.1,4.1C330.9,467.5,334.2,466.1,337.1,463.3z"/>
				</g>
			</g>
			<g>
				<g>
					<path class="st0" d="M367.6,414.4c1.1,1.1,1.6,2.4,1.6,4c0,1.6-0.5,2.9-1.6,4c-1.1,1-2.4,1.6-4.1,1.6c-1.7,0-3.1-0.5-4.2-1.6
						c-1.1-1-1.6-2.4-1.6-4c0-1.6,0.6-2.9,1.6-4c1.1-1.1,2.5-1.6,4.2-1.6C365.2,412.7,366.6,413.3,367.6,414.4z M359.1,474.2v-43h9
						v43H359.1z"/>
				</g>
			</g>
			<g>
				<g>
					<path class="st0" d="M417,435.1c3.2,3.4,4.8,7.8,4.8,13.1v26h-9.1V450c0-3.5-0.9-6.4-2.8-8.5c-1.9-2.1-4.3-3.2-7.4-3.2
						c-4,0-7.1,1.4-9.4,4.1c-2.3,2.7-3.4,6.7-3.4,12v19.8h-9v-43h9v5.3c3.6-4.3,8.6-6.5,14.9-6.5C409.7,430,413.8,431.7,417,435.1z"
						/>
				</g>
			</g>
			<g>
				<g>
					<path class="st1" d="M466.5,419.5c3.7,2.8,6.1,6.6,7.1,11.3l-4.3,1c-0.8-3.9-2.6-7-5.6-9.3c-3-2.3-6.8-3.5-11.3-3.5
						c-4.4,0-8,1.1-10.8,3.3c-2.8,2.2-4.2,5.1-4.2,8.8c0,2.9,0.9,5.2,2.6,6.7c1.8,1.5,4.3,2.7,7.7,3.4l12.7,3c2,0.4,3.8,0.9,5.3,1.6
						c1.5,0.6,3,1.5,4.4,2.6c1.4,1.1,2.5,2.5,3.3,4.2s1.2,3.7,1.2,5.9c0,5-1.9,9-5.7,12c-3.8,3-8.8,4.5-15,4.5
						c-6.4,0-11.7-1.5-15.9-4.6c-4.3-3.1-6.7-7.3-7.4-12.6l4.7-1c0.5,4.4,2.5,8,6,10.5c3.5,2.6,7.8,3.9,13,3.9
						c4.9,0,8.8-1.1,11.7-3.4c2.9-2.3,4.3-5.3,4.3-9.1c0-3.1-0.8-5.4-2.6-6.9c-1.7-1.5-4.5-2.7-8.3-3.6l-13.4-3.1
						c-8.9-2.1-13.3-6.7-13.3-13.9c0-4.9,1.8-8.7,5.5-11.7c3.7-2.9,8.4-4.4,14.3-4.4C458.1,415.2,462.8,416.6,466.5,419.5z"/>
				</g>
			</g>
			<g>
				<g>
					<path class="st1" d="M507.9,471.8c-2.9,2.3-6,3.4-9.3,3.4c-3.8,0-6.9-1.1-9.2-3.4c-2.3-2.3-3.5-5.4-3.5-9.5v-26.8h-9.3v-3.6
						h9.3v-13.9h4.2v13.9h15.9v3.6h-15.9V462c0,2.8,0.8,5.1,2.4,6.7c1.6,1.6,3.7,2.5,6.3,2.5c2.7,0,5.1-1,7.4-2.9L507.9,471.8z"/>
				</g>
			</g>
			<g>
				<g>
					<path class="st1" d="M553.2,474.2h-4.2v-8.9c-1.8,3.1-4.4,5.5-7.6,7.3c-3.2,1.7-6.7,2.6-10.6,2.6c-6,0-11.1-2-15.2-6.1
						c-4.2-4.1-6.2-9.4-6.2-16c0-6.5,2.1-11.9,6.3-16c4.2-4.1,9.3-6.2,15.2-6.2c3.9,0,7.4,0.9,10.6,2.6c3.2,1.8,5.7,4.2,7.6,7.3
						v-8.9h4.2V474.2z M543.7,466.2c3.5-3.4,5.3-7.8,5.3-13.3s-1.8-9.8-5.3-13.3c-3.6-3.4-7.7-5.1-12.4-5.1c-5,0-9.2,1.7-12.6,5.1
						s-5.2,7.8-5.2,13.3c0,5.5,1.7,10,5.1,13.3c3.4,3.4,7.6,5,12.6,5C536,471.4,540.1,469.7,543.7,466.2z"/>
				</g>
			</g>
			<g>
				<g>
					<path class="st1" d="M601.6,474.2l-26.4-19.8h-2.9v19.8h-4.2v-62.4h4.2v38.5h3.3l23.5-18.4h5.7l-26,20.6l29,21.7H601.6z"/>
				</g>
			</g>
			<g>
				<g>
					<path class="st1" d="M651.6,453.4h-38.4c0.1,5.4,1.8,9.8,5.3,13.1c3.5,3.3,7.5,4.9,12,4.9c8.1,0,13.6-3.6,16.5-10.8l3.7,0.9
						c-1.6,4.4-4.2,7.8-7.6,10.2c-3.5,2.3-7.7,3.5-12.6,3.5c-5.7,0-10.7-2-15-6.1c-4.3-4-6.4-9.4-6.4-15.9c0-6.6,2.2-12,6.5-16.2
						c4.3-4.1,9.5-6.2,15.4-6.2c5.8,0,10.7,1.9,14.5,5.8c3.8,3.9,5.9,9,6.1,15.2V453.4z M619.4,438.9c-3.4,2.8-5.4,6.6-6,11.3h34
						c-0.5-4.9-2.3-8.7-5.3-11.4c-3-2.7-6.7-4.1-11.1-4.1C626.7,434.6,622.8,436,619.4,438.9z"/>
				</g>
			</g>
		</g>
	</g>
	<g>
		<path class="st1" d="M406.3,294.4h-15.2v14.9h14.4c7.3,0,10.8-3.5,10.8-7.9C416.2,296.8,412.8,294.4,406.3,294.4z"/>
		<path class="st1" d="M391.1,270.4v15h12.9c6.9,0,10.1-3.1,10.1-7.8c0-4.6-3.1-7.2-10.1-7.2H391.1z"/>
		<path class="st1" d="M400,224.6c-36.4,0-65.8,29.5-65.8,65.8c0,32.9,24.2,60.1,55.7,65v49.5l20.3-17.1v-32.4v-13.9l6.9-6.3v18.7
			c28.1-7.5,48.8-33,48.8-63.5C465.8,254.1,436.4,224.6,400,224.6z M408.9,317.9v6.9H400v-6.7h-4v6.7h-8.9v-6.7H374v-8.8h7.1v-38.9
			H374v-8.8h13.2v-6.7h8.9v6.7h4v-6.7h8.9v7c9.2,1.2,14.5,6.6,14.5,14.2c0,6.1-3.2,11-8.4,12.8c7.6,1.5,11,7.2,11,13.6
			C426,311.1,419.5,316.9,408.9,317.9z"/>
	</g>
</g>
</svg>
